<?xml version="1.0" encoding="utf-8"?>
<!-- Generator: Adobe Illustrator 22.0.1, SVG Export Plug-In . SVG Version: 6.00 Build 0)  -->
<svg version="1.1" id="形状_3_1_" xmlns="http://www.w3.org/2000/svg" xmlns:xlink="http://www.w3.org/1999/xlink" x="0px"
	 y="0px" viewBox="0 0 8000 240" style="enable-background:new 0 0 8000 240;" xml:space="preserve">
<style type="text/css">
	.st0{fill-rule:evenodd;clip-rule:evenodd;fill:#090002;}
</style>
<g id="形状_3">
	<g>
		<polygon class="st0" points="7624,128 7624,124 7620,124 7620,120 7616,120 7616,116 7612,116 7612,12 7608,12 7608,8 7604,8 
			7604,4 7600,4 7600,0 7430,0 7430,4 7426,4 7426,8 7422,8 7422,12 7418,12 7418,116 7414,116 7414,120 7410,120 7410,124 
			7406,124 7406,128 6975,128 6975,124 6971,124 6971,120 6967,120 6967,116 6963,116 6963,12 6959,12 6959,8 6955,8 6955,4 6951,4 
			6951,0 6540,0 6540,4 6536,4 6536,8 6532,8 6532,12 6528,12 6528,116 6524,116 6524,120 6520,120 6520,124 6516,124 6516,128 
			6413,128 6413,124 6409,124 6409,120 6405,120 6405,116 6401,116 6401,12 6397,12 6397,8 6393,8 6393,4 6389,4 6389,0 6160,0 
			6160,4 6156,4 6156,8 6152,8 6152,12 6148,12 6148,116 6144,116 6144,120 6140,120 6140,124 6136,124 6136,128 5910,128 5910,124 
			5906,124 5906,120 5902,120 5902,116 5898,116 5898,12 5894,12 5894,8 5890,8 5890,4 5886,4 5886,0 5404,0 5404,4 5400,4 5400,8 
			5396,8 5396,12 5392,12 5392,116 5388,116 5388,120 5384,120 5384,124 5380,124 5380,128 4760,128 4760,124 4756,124 4756,120 
			4752,120 4752,116 4748,116 4748,12 4744,12 4744,8 4740,8 4740,4 4736,4 4736,0 4254,0 4254,4 4250,4 4250,8 4246,8 4246,12 
			4242,12 4242,116 4238,116 4238,120 4234,120 4234,124 4230,124 4230,128 4004,128 4004,124 4000,124 4000,120 3996,120 3996,116 
			3992,116 3992,12 3988,12 3988,8 3984,8 3984,4 3980,4 3980,0 3751,0 3751,4 3747,4 3747,8 3743,8 3743,12 3739,12 3739,116 
			3735,116 3735,120 3731,120 3731,124 3727,124 3727,128 3624,128 3624,124 3620,124 3620,120 3616,120 3616,116 3612,116 3612,12 
			3608,12 3608,8 3604,8 3604,4 3600,4 3600,0 3189,0 3189,4 3185,4 3185,8 3181,8 3181,12 3177,12 3177,116 3173,116 3173,120 
			3169,120 3169,124 3165,124 3165,128 2734,128 2734,124 2730,124 2730,120 2726,120 2726,116 2722,116 2722,12 2718,12 2718,8 
			2714,8 2714,4 2710,4 2710,0 2360,0 2360,4 2356,4 2356,8 2352,8 2352,12 2348,12 2348,116 2344,116 2344,120 2340,120 2340,124 
			2336,124 2336,128 1905,128 1905,124 1901,124 1901,120 1897,120 1897,116 1893,116 1893,12 1889,12 1889,8 1885,8 1885,4 1881,4 
			1881,0 1470,0 1470,4 1466,4 1466,8 1462,8 1462,12 1458,12 1458,116 1454,116 1454,120 1450,120 1450,124 1446,124 1446,128 
			1343,128 1343,124 1339,124 1339,120 1335,120 1335,116 1331,116 1331,12 1327,12 1327,8 1323,8 1323,4 1319,4 1319,0 1090,0 
			1090,4 1086,4 1086,8 1082,8 1082,12 1078,12 1078,116 1074,116 1074,120 1070,120 1070,124 1066,124 1066,128 840,128 840,124 
			836,124 836,120 832,120 832,116 828,116 828,12 824,12 824,8 820,8 820,4 816,4 816,0 334,0 334,4 330,4 330,8 326,8 326,12 
			322,12 322,116 318,116 318,120 314,120 314,124 310,124 310,128 0,128 0,240 8000,240 8000,128 		"/>
	</g>
</g>
</svg>
