<?xml version="1.0" encoding="utf-8"?>
<!-- Generator: Adobe Illustrator 22.0.1, SVG Export Plug-In . SVG Version: 6.00 Build 0)  -->
<svg version="1.1" id="形状_1_1_" xmlns="http://www.w3.org/2000/svg" xmlns:xlink="http://www.w3.org/1999/xlink" x="0px"
	 y="0px" viewBox="0 0 8000 480" style="enable-background:new 0 0 8000 480;" xml:space="preserve">
<style type="text/css">
	.st0{fill-rule:evenodd;clip-rule:evenodd;fill:#090002;}
</style>
<g id="形状_1">
	<g>
		<polygon class="st0" points="7842,32 7842,28 7838,28 7838,3 7834,3 7834,0 7704,0 7704,4 7700,4 7700,28 7696,28 7696,32 
			7578,32 7578,28 7574,28 7574,4 7570,4 7570,0 7483,0 7483,4 7479,4 7479,28 7475,28 7475,32 7293,32 7293,28 7289,28 7289,4 
			7285,4 7285,0 7135,0 7135,4 7131,4 7131,28 7127,28 7127,32 7040,32 7040,28 7036,28 7036,4 7032,4 7032,0 6818,0 6818,4 6814,4 
			6814,28 6810,28 6810,32 6723,32 6723,28 6719,28 6719,4 6715,4 6715,0 6597,0 6597,4 6593,4 6593,28 6589,28 6589,32 6470,32 
			6470,28 6466,28 6466,4 6462,4 6462,0 6344,0 6344,4 6340,4 6340,28 6336,28 6336,32 6249,32 6249,28 6245,28 6245,4 6241,4 
			6241,0 6027,0 6027,4 6023,4 6023,28 6019,28 6019,32 5869,32 5869,28 5865,28 5865,4 5861,4 5861,0 5679,0 5679,4 5675,4 
			5675,28 5671,28 5671,32 5552,32 5552,28 5548,28 5548,4 5544,4 5544,0 5457,0 5457,4 5453,4 5453,28 5449,28 5449,32 5268,32 
			5268,28 5264,28 5264,4 5260,4 5260,0 5142,0 5142,4 5138,4 5138,28 5134,28 5134,32 4952,32 4952,28 4948,28 4948,4 4944,4 
			4944,0 4857,0 4857,4 4853,4 4853,28 4849,28 4849,32 4731,32 4731,28 4727,28 4727,4 4723,4 4723,0 4541,0 4541,4 4537,4 
			4537,28 4533,28 4533,32 4383,32 4383,28 4379,28 4379,4 4375,4 4375,0 4161,0 4161,4 4157,4 4157,28 4153,28 4153,32 4066,32 
			4066,28 4062,28 4062,4 4058,4 4058,0 3940,0 3940,4 3936,4 3936,28 3932,28 3932,32 3813,32 3813,28 3809,28 3809,4 3805,4 
			3805,0 3686,0 3686,4 3682,4 3682,28 3678,28 3678,32 3591,32 3591,28 3587,28 3587,4 3583,4 3583,0 3370,0 3370,4 3366,4 
			3366,28 3362,28 3362,32 3275,32 3275,28 3271,28 3271,4 3267,4 3267,0 3117,0 3117,4 3113,4 3113,28 3109,28 3109,32 2927,32 
			2927,28 2923,28 2923,4 2919,4 2919,0 2832,0 2832,4 2828,4 2828,28 2824,28 2824,32 2705,32 2705,28 2701,28 2701,4 2697,4 
			2697,0 2642,0 2642,4 2638,4 2638,28 2634,28 2634,32 2515,32 2515,28 2511,28 2511,4 2507,4 2507,0 2420,0 2420,4 2416,4 
			2416,28 2412,28 2412,32 2230,32 2230,28 2226,28 2226,4 2222,4 2222,0 2072,0 2072,4 2068,4 2068,28 2064,28 2064,32 1977,32 
			1977,28 1973,28 1973,4 1969,4 1969,0 1755,0 1755,4 1751,4 1751,28 1747,28 1747,32 1661,32 1661,28 1657,28 1657,4 1653,4 
			1653,0 1534,0 1534,4 1530,4 1530,28 1526,28 1526,32 1407,32 1407,28 1403,28 1403,4 1399,4 1399,0 1281,0 1281,4 1277,4 
			1277,28 1273,28 1273,32 1186,32 1186,28 1182,28 1182,4 1178,4 1178,0 964,0 964,4 960,4 960,28 956,28 956,32 806,32 806,28 
			802,28 802,4 798,4 798,0 616,0 616,4 612,4 612,28 608,28 608,32 490,32 490,28 486,28 486,4 482,4 482,0 395,0 395,4 391,4 
			391,28 387,28 387,32 205,32 205,28 201,28 201,4 197,4 197,0 94,0 94,4 90,4 90,29 86,29 86,33 0,33 0,480 8000,480 8000,32 		
			"/>
	</g>
</g>
</svg>
