<?xml version="1.0" encoding="utf-8"?>
<!-- Generator: Adobe Illustrator 22.0.1, SVG Export Plug-In . SVG Version: 6.00 Build 0)  -->
<svg version="1.1" id="形状_2_1_" xmlns="http://www.w3.org/2000/svg" xmlns:xlink="http://www.w3.org/1999/xlink" x="0px"
	 y="0px" viewBox="0 0 8000 360" style="enable-background:new 0 0 8000 360;" xml:space="preserve">
<style type="text/css">
	.st0{fill-rule:evenodd;clip-rule:evenodd;fill:#090002;}
</style>
<g id="形状_2">
	<g>
		<polygon class="st0" points="7584,64 7584,60 7580,60 7580,56 7576,56 7576,8 7572,8 7572,4 7568,4 7568,0 7205,0 7205,4 7201,4 
			7201,8 7197,8 7197,56 7193,56 7193,60 7189,60 7189,64 6825,64 6825,60 6821,60 6821,56 6817,56 6817,8 6813,8 6813,4 6809,4 
			6809,0 6698,0 6698,4 6694,4 6694,8 6690,8 6690,56 6686,56 6686,60 6682,60 6682,64 6572,64 6572,60 6568,60 6568,56 6564,56 
			6564,8 6560,8 6560,4 6556,4 6556,0 6255,0 6255,4 6251,4 6251,8 6247,8 6247,56 6243,56 6243,60 6239,60 6239,64 6066,64 
			6066,60 6062,60 6062,56 6058,56 6058,8 6054,8 6054,4 6050,4 6050,0 5876,0 5876,4 5872,4 5872,8 5868,8 5868,56 5864,56 
			5864,60 5860,60 5860,64 5559,64 5559,60 5555,60 5555,56 5551,56 5551,8 5547,8 5547,4 5543,4 5543,0 4990,0 4990,4 4986,4 
			4986,8 4982,8 4982,56 4978,56 4978,60 4974,60 4974,64 4674,64 4674,60 4670,60 4670,56 4666,56 4666,8 4662,8 4662,4 4658,4 
			4658,0 4484,0 4484,4 4480,4 4480,8 4476,8 4476,56 4472,56 4472,60 4468,60 4468,64 4295,64 4295,60 4291,60 4291,56 4287,56 
			4287,8 4283,8 4283,4 4279,4 4279,0 3978,0 3978,4 3974,4 3974,8 3970,8 3970,56 3966,56 3966,60 3962,60 3962,64 3851,64 
			3851,60 3847,60 3847,56 3843,56 3843,8 3839,8 3839,4 3835,4 3835,0 3725,0 3725,4 3721,4 3721,8 3717,8 3717,56 3713,56 
			3713,60 3709,60 3709,64 3345,64 3345,60 3341,60 3341,56 3337,56 3337,8 3333,8 3333,4 3329,4 3329,0 2965,0 2965,4 2961,4 
			2961,8 2957,8 2957,56 2953,56 2953,60 2949,60 2949,64 2521,64 2521,60 2517,60 2517,56 2513,56 2513,8 2509,8 2509,4 2505,4 
			2505,0 2141,0 2141,4 2137,4 2137,8 2133,8 2133,56 2129,56 2129,60 2125,60 2125,64 1762,64 1762,60 1758,60 1758,56 1754,56 
			1754,8 1750,8 1750,4 1746,4 1746,0 1635,0 1635,4 1631,4 1631,8 1627,8 1627,56 1623,56 1623,60 1619,60 1619,64 1509,64 
			1509,60 1505,60 1505,56 1501,56 1501,8 1497,8 1497,4 1493,4 1493,0 1192,0 1192,4 1188,4 1188,8 1184,8 1184,56 1180,56 
			1180,60 1176,60 1176,64 1003,64 1003,60 999,60 999,56 995,56 995,8 991,8 991,4 987,4 987,0 812,0 812,4 808,4 808,8 804,8 
			804,56 800,56 800,60 796,60 796,64 496,64 496,60 492,60 492,56 488,56 488,8 484,8 484,4 480,4 480,0 200,0 200,4 196,4 196,8 
			192,8 192,56 188,56 188,60 184,60 184,64 0,64 0,360 8000,360 8000,64 		"/>
	</g>
</g>
</svg>
