<?xml version="1.0" encoding="utf-8"?>
<!-- Generator: Adobe Illustrator 22.0.1, SVG Export Plug-In . SVG Version: 6.00 Build 0)  -->
<svg version="1.1" id="图层_1" xmlns="http://www.w3.org/2000/svg" xmlns:xlink="http://www.w3.org/1999/xlink" x="0px" y="0px"
	 viewBox="0 0 5000 500" style="enable-background:new 0 0 5000 500;" xml:space="preserve">
<style type="text/css">
	.st0{fill:none;stroke:#000000;stroke-miterlimit:10;}
	.st1{fill-rule:evenodd;clip-rule:evenodd;fill:#060002;}
	.st2{fill-rule:evenodd;clip-rule:evenodd;fill:#F01900;}
</style>
<path class="st0" d="M-0.5,499.5C507,288.3,1394.9-5.7,2532.5,0.1c1102.8,5.6,1964.8,290.5,2467,499.4"/>
<g>
	<g id="点">
		<g>
			<path class="st1" d="M160,430h3v-3h-3V430z M214,430h3v-3h-3V430z M223,433v3h3v-3H223z M214,499h3v-3h-3V499z M223,493h3v-3h-3
				V493z M160,499h3v-3h-3V499z"/>
		</g>
	</g>
	<g id="竖">
		<g>
			<path class="st2" d="M166,430h48v-3h-48V430z M163,499h48v-3h-48V499z M160,433v63h3v-63H160z M223,439v51h3v-51H223z"/>
		</g>
	</g>
	<g id="竖_3_">
		<g>
			<path class="st2" d="M80,496h3v-63h-3V496z M86,427v3h63v-3H86z M86,499h63v-3H86V499z M120,462H86v3h34V462z"/>
		</g>
	</g>
	<g id="点_3_">
		<g>
			<path class="st1" d="M149,499h3v-3h-3V499z M149,427v3h3v-3H149z M80,430h3v-3h-3V430z M80,499h3v-3h-3V499z M120,465h3v-3h-3
				V465z"/>
		</g>
	</g>
	<g id="点_2_">
		<g>
			<path class="st1" d="M0,499h3v-3H0V499z M0,430h3v-3H0V430z M69,427v3h3v-3H69z M69,499h3v-3h-3V499z"/>
		</g>
	</g>
	<g id="竖_2_">
		<g>
			<path class="st2" d="M0,496h3v-63H0V496z M6,499h63v-3H6V499z M69,433v63h3v-63H69z"/>
		</g>
	</g>
</g>
</svg>
