<svg xmlns="http://www.w3.org/2000/svg" viewBox="0 0 380 186">
	<polygon  fill="#000000" fill-rule="evenodd" points="299,182 299,178 303,178 303,163 299,163 299,159 295,159 295,155 268,155 268,151 264,151 264,147 
			268,147 268,143 373,143 373,139 377,139 377,135 380,135 380,110 377,110 377,106 373,106 373,102 211,102 211,98 207,98 207,94 
			211,94 211,90 288,90 288,86 292,86 292,82 296,82 296,8 292,8 292,4 288,4 288,0 8,0 8,4 4,4 4,8 0,8 0,82 4,82 4,86 8,86 8,90 
			150,90 150,94 154,94 154,98 150,98 150,102 108,102 108,106 104,106 104,110 100,110 100,135 104,135 104,139 108,139 108,143 
			212,143 212,147 216,147 216,151 212,151 212,155 55,155 55,159 51,159 51,163 47,163 47,178 51,178 51,182 55,182 55,186 
			295,186 295,182"/>
</svg>
