<svg xmlns="http://www.w3.org/2000/svg" viewBox="0 0 430 230">
	<polygon  fill="#000000" fill-rule="evenodd" points="426,8 426,4 421.9,4 422,0 72,0 72,4 68,4 68,8 64,8 64,158 68,158 68,162 72,162 72,166 121,166 
			121,170 125,170 125,174 121,174 121,178 8,178 8,182 4,182 4,186 0,186 0,222 4,222 4,226 8,226 8,230 275,230 275,226 279,226 
			279,222 283,222 283,186 279,186 279,182 275,182 275,178 208,178 208,174 204,174 204,170 208,170 208,166 422,166 422,162 
			426,162 426,158 430,158 430,8"/>
</svg>
